<svg width="132" height="243" viewBox="0 0 132 243" fill="none" xmlns="http://www.w3.org/2000/svg">
<rect y="57" width="132" height="128" rx="10" fill="#8B2424"/>
<g filter="url(#filter0_d)">
<path d="M29.3125 165.211C27.5312 165.211 26.2422 165 25.4453 164.578C24.6484 164.109 24.25 163.406 24.25 162.469V79.9922C24.25 78.1172 25.9375 77.1797 29.3125 77.1797H33.7422C36.5078 77.1797 38.2656 77.9531 39.0156 79.5L62.6406 120.492L65.875 128.367L69.1094 121.195L92.8047 79.5C93.6016 77.9531 95.3359 77.1797 98.0078 77.1797H102.156C105.484 77.1797 107.148 78.1172 107.148 79.9922V162.469C107.148 164.297 105.484 165.211 102.156 165.211H101.312C99.5312 165.211 98.2422 165 97.4453 164.578C96.6484 164.109 96.25 163.406 96.25 162.469V95.1797L96.0391 95.7422L71.1484 138.984C70.8203 139.547 70.4453 139.969 70.0234 140.25C69.6016 140.484 69.0625 140.602 68.4062 140.602H63.4141C62.1484 140.602 61.2109 140.062 60.6016 138.984L35.1484 94.4766V162.469C35.1484 164.297 33.4844 165.211 30.1562 165.211H29.3125Z" fill="url(#paint0_linear)"/>
<path d="M25.4453 164.578L23.4172 168.026L23.4945 168.071L23.5738 168.113L25.4453 164.578ZM39.0156 79.5L35.4164 81.2451L35.4787 81.3736L35.55 81.4973L39.0156 79.5ZM62.6406 120.492L66.3407 118.973L66.2394 118.726L66.1063 118.495L62.6406 120.492ZM65.875 128.367L62.1749 129.887L65.7033 138.478L69.5213 130.012L65.875 128.367ZM69.1094 121.195L65.6317 119.219L65.5396 119.381L65.463 119.551L69.1094 121.195ZM92.8047 79.5L96.2823 81.4763L96.3229 81.4049L96.3606 81.3318L92.8047 79.5ZM97.4453 164.578L95.4172 168.026L95.4945 168.071L95.5738 168.113L97.4453 164.578ZM96.25 95.1797H100.25L92.5047 93.7752L96.25 95.1797ZM96.0391 95.7422L99.5058 97.7377L99.6693 97.4536L99.7844 97.1467L96.0391 95.7422ZM71.1484 138.984L74.6036 141L74.6094 140.99L74.6151 140.98L71.1484 138.984ZM70.0234 140.25L71.966 143.747L72.1075 143.668L72.2422 143.578L70.0234 140.25ZM60.6016 138.984L64.0838 137.016L64.0789 137.007L64.0739 136.999L60.6016 138.984ZM35.1484 94.4766L38.6207 92.4908L31.1484 79.4246V94.4766H35.1484ZM29.3125 161.211C28.5662 161.211 28.0258 161.166 27.6557 161.105C27.2647 161.041 27.2017 160.982 27.3169 161.043L23.5738 168.113C25.2769 169.015 27.3978 169.211 29.3125 169.211V161.211ZM27.4734 161.13C27.5916 161.2 27.8347 161.384 28.0289 161.727C28.2216 162.067 28.25 162.358 28.25 162.469H20.25C20.25 164.799 21.3776 166.826 23.4172 168.026L27.4734 161.13ZM28.25 162.469V79.9922H20.25V162.469H28.25ZM28.25 79.9922C28.25 80.1425 28.2094 80.4647 27.9964 80.8197C27.7869 81.1688 27.5403 81.3338 27.4582 81.3794C27.3992 81.4122 27.4859 81.3516 27.826 81.2886C28.1579 81.2271 28.6424 81.1797 29.3125 81.1797V73.1797C27.3857 73.1797 25.3039 73.4246 23.5731 74.3862C22.6472 74.9006 21.7678 75.6515 21.1364 76.7037C20.5015 77.7619 20.25 78.9044 20.25 79.9922H28.25ZM29.3125 81.1797H33.7422V73.1797H29.3125V81.1797ZM33.7422 81.1797C34.7955 81.1797 35.3246 81.3334 35.5238 81.421C35.607 81.4576 35.5976 81.4672 35.5476 81.4209C35.4929 81.3702 35.4449 81.304 35.4164 81.2451L42.6149 77.7549C40.8451 74.1048 37.0244 73.1797 33.7422 73.1797V81.1797ZM35.55 81.4973L59.175 122.49L66.1063 118.495L42.4813 77.5027L35.55 81.4973ZM58.9405 122.012L62.1749 129.887L69.5751 126.848L66.3407 118.973L58.9405 122.012ZM69.5213 130.012L72.7557 122.84L65.463 119.551L62.2287 126.723L69.5213 130.012ZM72.587 123.172L96.2823 81.4763L89.327 77.5237L65.6317 119.219L72.587 123.172ZM96.3606 81.3318C96.3466 81.359 96.3174 81.4001 96.281 81.4335C96.248 81.4638 96.2508 81.4493 96.3323 81.413C96.5228 81.328 97.0205 81.1797 98.0078 81.1797V73.1797C94.7199 73.1797 91.0585 74.1552 89.2488 77.6682L96.3606 81.3318ZM98.0078 81.1797H102.156V73.1797H98.0078V81.1797ZM102.156 81.1797C102.812 81.1797 103.283 81.2268 103.602 81.2867C103.929 81.3481 104.004 81.4058 103.937 81.3678C103.846 81.3164 103.6 81.1464 103.394 80.7986C103.186 80.447 103.148 80.1326 103.148 79.9922H111.148C111.148 77.5773 109.925 75.559 107.864 74.3978C106.138 73.4256 104.065 73.1797 102.156 73.1797V81.1797ZM103.148 79.9922V162.469H111.148V79.9922H103.148ZM103.148 162.469C103.148 162.299 103.194 161.96 103.417 161.593C103.634 161.235 103.889 161.066 103.975 161.019C104.037 160.985 103.955 161.044 103.62 161.105C103.294 161.165 102.817 161.211 102.156 161.211V169.211C104.056 169.211 106.112 168.973 107.826 168.031C108.743 167.527 109.622 166.788 110.256 165.744C110.894 164.692 111.148 163.553 111.148 162.469H103.148ZM102.156 161.211H101.312V169.211H102.156V161.211ZM101.312 161.211C100.566 161.211 100.026 161.166 99.6557 161.105C99.2647 161.041 99.2017 160.982 99.3169 161.043L95.5738 168.113C97.2769 169.015 99.3978 169.211 101.312 169.211V161.211ZM99.4734 161.13C99.5916 161.2 99.8347 161.384 100.029 161.727C100.222 162.067 100.25 162.358 100.25 162.469H92.25C92.25 164.799 93.3776 166.826 95.4172 168.026L99.4734 161.13ZM100.25 162.469V95.1797H92.25V162.469H100.25ZM92.5047 93.7752L92.2937 94.3377L99.7844 97.1467L99.9953 96.5842L92.5047 93.7752ZM92.5724 93.7467L67.6817 136.989L74.6151 140.98L99.5058 97.7377L92.5724 93.7467ZM67.6933 136.969C67.6429 137.055 67.6185 137.08 67.6315 137.065C67.6459 137.049 67.701 136.991 67.8046 136.922L72.2422 143.578C73.2937 142.877 74.053 141.944 74.6036 141L67.6933 136.969ZM68.0809 136.753C68.257 136.656 68.3937 136.618 68.453 136.605C68.5093 136.593 68.5008 136.602 68.4062 136.602V144.602C69.5082 144.602 70.7743 144.409 71.966 143.747L68.0809 136.753ZM68.4062 136.602H63.4141V144.602H68.4062V136.602ZM63.4141 136.602C63.3608 136.602 63.5214 136.595 63.7556 136.73C63.9942 136.867 64.0878 137.023 64.0838 137.016L57.1193 140.953C58.4575 143.32 60.7456 144.602 63.4141 144.602V136.602ZM64.0739 136.999L38.6207 92.4908L31.6761 96.4623L57.1293 140.97L64.0739 136.999ZM31.1484 94.4766V162.469H39.1484V94.4766H31.1484ZM31.1484 162.469C31.1484 162.299 31.1944 161.96 31.4168 161.593C31.6345 161.235 31.8894 161.066 31.9746 161.019C32.0373 160.985 31.9547 161.044 31.6199 161.105C31.2937 161.165 30.8166 161.211 30.1562 161.211V169.211C32.0555 169.211 34.1123 168.973 35.8262 168.031C36.7434 167.527 37.6223 166.788 38.256 165.744C38.8945 164.692 39.1484 163.553 39.1484 162.469H31.1484ZM30.1562 161.211H29.3125V169.211H30.1562V161.211Z" fill="white" fill-opacity="0.15"/>
</g>
<defs>
<filter id="filter0_d" x="16.25" y="73.1797" width="98.8984" height="104.031" filterUnits="userSpaceOnUse" color-interpolation-filters="sRGB">
<feFlood flood-opacity="0" result="BackgroundImageFix"/>
<feColorMatrix in="SourceAlpha" type="matrix" values="0 0 0 0 0 0 0 0 0 0 0 0 0 0 0 0 0 0 127 0"/>
<feOffset dy="4"/>
<feGaussianBlur stdDeviation="2"/>
<feColorMatrix type="matrix" values="0 0 0 0 0 0 0 0 0 0 0 0 0 0 0 0 0 0 0.25 0"/>
<feBlend mode="normal" in2="BackgroundImageFix" result="effect1_dropShadow"/>
<feBlend mode="normal" in="SourceGraphic" in2="effect1_dropShadow" result="shape"/>
</filter>
<linearGradient id="paint0_linear" x1="20.3953" y1="50.2759" x2="241.082" y2="207.835" gradientUnits="userSpaceOnUse">
<stop stop-color="#4BD4FF"/>
<stop offset="1" stop-color="#0085FF"/>
</linearGradient>
</defs>
</svg>
